<mxfile host="app.diagrams.net" modified="2020-07-15T14:00:36.131Z" agent="5.0 (Windows NT 10.0; Win64; x64) AppleWebKit/537.36 (KHTML, like Gecko) Chrome/83.0.4103.116 Safari/537.36" etag="COKK72RX9XNIUh2GAv7z" version="13.4.2" type="github">
  <diagram id="rj0JLe2gIcL-ojJeOArh" name="Page-1">
    <mxGraphModel dx="1422" dy="832" grid="0" gridSize="10" guides="1" tooltips="1" connect="1" arrows="1" fold="1" page="1" pageScale="1" pageWidth="827" pageHeight="1169" math="0" shadow="0">
      <root>
        <mxCell id="0" />
        <mxCell id="1" parent="0" />
        <mxCell id="2" value="&lt;b&gt;&lt;font style=&quot;font-size: 25px&quot; color=&quot;#cc0066&quot;&gt;(Flower f1, Flower f2) -&amp;gt; f1.getPrice().compareTo(f2.getPrice())&lt;/font&gt;&lt;/b&gt;" style="text;html=1;align=center;verticalAlign=middle;resizable=0;points=[];autosize=1;" vertex="1" parent="1">
          <mxGeometry x="42" y="228.25" width="750" height="20" as="geometry" />
        </mxCell>
        <mxCell id="dL1Ew3igVVzmneVDEsXX-4" value="" style="strokeWidth=2;html=1;shape=mxgraph.flowchart.annotation_2;align=left;labelPosition=right;pointerEvents=1;rotation=-90;" vertex="1" parent="1">
          <mxGeometry x="149.5" y="220.75" width="55" height="160" as="geometry" />
        </mxCell>
        <mxCell id="dL1Ew3igVVzmneVDEsXX-6" value="&lt;font style=&quot;font-size: 24px&quot;&gt;参数&lt;/font&gt;" style="rounded=1;whiteSpace=wrap;html=1;strokeWidth=2;fillWeight=4;hachureGap=8;hachureAngle=45;sketch=1;fillColor=#D7E0E2;" vertex="1" parent="1">
          <mxGeometry x="117" y="328.25" width="120" height="60" as="geometry" />
        </mxCell>
        <mxCell id="dL1Ew3igVVzmneVDEsXX-7" value="" style="strokeWidth=2;html=1;shape=mxgraph.flowchart.annotation_2;align=left;labelPosition=right;pointerEvents=1;rotation=-90;" vertex="1" parent="1">
          <mxGeometry x="520.75" y="112" width="55" height="377.5" as="geometry" />
        </mxCell>
        <mxCell id="dL1Ew3igVVzmneVDEsXX-8" value="&lt;font style=&quot;font-size: 24px&quot;&gt;主体&lt;/font&gt;" style="rounded=1;whiteSpace=wrap;html=1;strokeWidth=2;fillWeight=4;hachureGap=8;hachureAngle=45;sketch=1;fillColor=#D7E0E2;" vertex="1" parent="1">
          <mxGeometry x="488.25" y="328.25" width="120" height="60" as="geometry" />
        </mxCell>
        <mxCell id="dL1Ew3igVVzmneVDEsXX-10" value="&lt;font style=&quot;font-size: 21px&quot; color=&quot;#ff0080&quot;&gt;Lambda 表达式由 参数、箭头、主体 构成&lt;/font&gt;" style="rounded=1;whiteSpace=wrap;html=1;fillColor=#D7E0E2;" vertex="1" parent="1">
          <mxGeometry x="132" y="428.25" width="560" height="40" as="geometry" />
        </mxCell>
      </root>
    </mxGraphModel>
  </diagram>
</mxfile>
